<mxfile host="app.diagrams.net" agent="Mozilla/5.0 (X11; Linux x86_64) AppleWebKit/537.36 (KHTML, like Gecko) Chrome/130.0.0.0 Safari/537.36" version="24.8.1">
  <diagram name="Page-1" id="gNKLgJ729ShWe-qxN5XY">
    <mxGraphModel dx="2449" dy="1086" grid="0" gridSize="10" guides="1" tooltips="1" connect="1" arrows="1" fold="1" page="0" pageScale="1" pageWidth="850" pageHeight="1100" math="0" shadow="0">
      <root>
        <mxCell id="0" />
        <mxCell id="1" parent="0" />
        <mxCell id="EXmQkmnTeIxn1TlSWP1r-30" value="" style="group" vertex="1" connectable="0" parent="1">
          <mxGeometry x="-320" y="500" width="370" height="320" as="geometry" />
        </mxCell>
        <mxCell id="EXmQkmnTeIxn1TlSWP1r-23" style="edgeStyle=orthogonalEdgeStyle;rounded=0;orthogonalLoop=1;jettySize=auto;html=1;exitX=0;exitY=0;exitDx=0;exitDy=0;entryX=1;entryY=0.5;entryDx=0;entryDy=0;" edge="1" parent="EXmQkmnTeIxn1TlSWP1r-30" source="EXmQkmnTeIxn1TlSWP1r-2" target="EXmQkmnTeIxn1TlSWP1r-11">
          <mxGeometry relative="1" as="geometry" />
        </mxCell>
        <mxCell id="EXmQkmnTeIxn1TlSWP1r-24" style="edgeStyle=orthogonalEdgeStyle;rounded=0;orthogonalLoop=1;jettySize=auto;html=1;exitX=0;exitY=0.25;exitDx=0;exitDy=0;entryX=1;entryY=0.5;entryDx=0;entryDy=0;" edge="1" parent="EXmQkmnTeIxn1TlSWP1r-30" source="EXmQkmnTeIxn1TlSWP1r-2" target="EXmQkmnTeIxn1TlSWP1r-13">
          <mxGeometry relative="1" as="geometry" />
        </mxCell>
        <mxCell id="EXmQkmnTeIxn1TlSWP1r-25" style="edgeStyle=orthogonalEdgeStyle;rounded=0;orthogonalLoop=1;jettySize=auto;html=1;exitX=0;exitY=1;exitDx=0;exitDy=0;entryX=1;entryY=0.5;entryDx=0;entryDy=0;" edge="1" parent="EXmQkmnTeIxn1TlSWP1r-30" source="EXmQkmnTeIxn1TlSWP1r-2" target="EXmQkmnTeIxn1TlSWP1r-17">
          <mxGeometry relative="1" as="geometry" />
        </mxCell>
        <mxCell id="EXmQkmnTeIxn1TlSWP1r-26" style="edgeStyle=orthogonalEdgeStyle;rounded=0;orthogonalLoop=1;jettySize=auto;html=1;exitX=0;exitY=0.75;exitDx=0;exitDy=0;entryX=1;entryY=0.5;entryDx=0;entryDy=0;" edge="1" parent="EXmQkmnTeIxn1TlSWP1r-30" source="EXmQkmnTeIxn1TlSWP1r-2" target="EXmQkmnTeIxn1TlSWP1r-14">
          <mxGeometry relative="1" as="geometry" />
        </mxCell>
        <mxCell id="EXmQkmnTeIxn1TlSWP1r-27" style="edgeStyle=orthogonalEdgeStyle;rounded=0;orthogonalLoop=1;jettySize=auto;html=1;exitX=0;exitY=0.5;exitDx=0;exitDy=0;entryX=1;entryY=0.5;entryDx=0;entryDy=0;" edge="1" parent="EXmQkmnTeIxn1TlSWP1r-30" source="EXmQkmnTeIxn1TlSWP1r-2" target="EXmQkmnTeIxn1TlSWP1r-16">
          <mxGeometry relative="1" as="geometry" />
        </mxCell>
        <mxCell id="EXmQkmnTeIxn1TlSWP1r-28" style="edgeStyle=orthogonalEdgeStyle;rounded=0;orthogonalLoop=1;jettySize=auto;html=1;exitX=0.25;exitY=0;exitDx=0;exitDy=0;entryX=0;entryY=1;entryDx=0;entryDy=0;" edge="1" parent="EXmQkmnTeIxn1TlSWP1r-30" source="EXmQkmnTeIxn1TlSWP1r-2" target="EXmQkmnTeIxn1TlSWP1r-18">
          <mxGeometry relative="1" as="geometry" />
        </mxCell>
        <mxCell id="EXmQkmnTeIxn1TlSWP1r-2" value="Artist" style="whiteSpace=wrap;html=1;align=center;" vertex="1" parent="EXmQkmnTeIxn1TlSWP1r-30">
          <mxGeometry x="190" y="120" width="100" height="40" as="geometry" />
        </mxCell>
        <mxCell id="EXmQkmnTeIxn1TlSWP1r-11" value="Name" style="ellipse;whiteSpace=wrap;html=1;align=center;" vertex="1" parent="EXmQkmnTeIxn1TlSWP1r-30">
          <mxGeometry x="50" width="100" height="40" as="geometry" />
        </mxCell>
        <mxCell id="EXmQkmnTeIxn1TlSWP1r-13" value="Stage Name" style="ellipse;whiteSpace=wrap;html=1;align=center;fontStyle=4;" vertex="1" parent="EXmQkmnTeIxn1TlSWP1r-30">
          <mxGeometry x="50" y="60" width="100" height="40" as="geometry" />
        </mxCell>
        <mxCell id="EXmQkmnTeIxn1TlSWP1r-14" value="Debut Year" style="ellipse;whiteSpace=wrap;html=1;align=center;" vertex="1" parent="EXmQkmnTeIxn1TlSWP1r-30">
          <mxGeometry x="50" y="180" width="100" height="40" as="geometry" />
        </mxCell>
        <mxCell id="EXmQkmnTeIxn1TlSWP1r-16" value="Role" style="ellipse;shape=doubleEllipse;margin=3;whiteSpace=wrap;html=1;align=center;" vertex="1" parent="EXmQkmnTeIxn1TlSWP1r-30">
          <mxGeometry y="120" width="100" height="40" as="geometry" />
        </mxCell>
        <mxCell id="EXmQkmnTeIxn1TlSWP1r-17" value="Experience" style="ellipse;whiteSpace=wrap;html=1;align=center;" vertex="1" parent="EXmQkmnTeIxn1TlSWP1r-30">
          <mxGeometry x="50" y="240" width="100" height="40" as="geometry" />
        </mxCell>
        <mxCell id="EXmQkmnTeIxn1TlSWP1r-18" value="Upcoming&lt;div&gt;Projects&lt;/div&gt;" style="ellipse;shape=doubleEllipse;margin=3;whiteSpace=wrap;html=1;align=center;" vertex="1" parent="EXmQkmnTeIxn1TlSWP1r-30">
          <mxGeometry x="200" y="50" width="100" height="40" as="geometry" />
        </mxCell>
        <mxCell id="EXmQkmnTeIxn1TlSWP1r-154" value="Collaborator" style="text;html=1;align=center;verticalAlign=middle;resizable=0;points=[];autosize=1;strokeColor=none;fillColor=none;rotation=75;" vertex="1" parent="EXmQkmnTeIxn1TlSWP1r-30">
          <mxGeometry x="270" y="245" width="90" height="30" as="geometry" />
        </mxCell>
        <mxCell id="EXmQkmnTeIxn1TlSWP1r-156" value="Collobrate" style="text;html=1;align=center;verticalAlign=middle;resizable=0;points=[];autosize=1;strokeColor=none;fillColor=none;rotation=-75;" vertex="1" parent="EXmQkmnTeIxn1TlSWP1r-30">
          <mxGeometry x="190" y="240" width="80" height="30" as="geometry" />
        </mxCell>
        <mxCell id="EXmQkmnTeIxn1TlSWP1r-198" value="(1,1)" style="text;html=1;align=center;verticalAlign=middle;resizable=0;points=[];autosize=1;strokeColor=none;fillColor=none;" vertex="1" parent="EXmQkmnTeIxn1TlSWP1r-30">
          <mxGeometry x="320" y="110" width="50" height="30" as="geometry" />
        </mxCell>
        <mxCell id="EXmQkmnTeIxn1TlSWP1r-217" value="(1,N)" style="text;html=1;align=center;verticalAlign=middle;resizable=0;points=[];autosize=1;strokeColor=none;fillColor=none;" vertex="1" parent="EXmQkmnTeIxn1TlSWP1r-30">
          <mxGeometry x="310" y="290" width="50" height="30" as="geometry" />
        </mxCell>
        <mxCell id="EXmQkmnTeIxn1TlSWP1r-219" value="(0,N)" style="text;html=1;align=center;verticalAlign=middle;resizable=0;points=[];autosize=1;strokeColor=none;fillColor=none;" vertex="1" parent="EXmQkmnTeIxn1TlSWP1r-30">
          <mxGeometry x="160" y="290" width="50" height="30" as="geometry" />
        </mxCell>
        <mxCell id="EXmQkmnTeIxn1TlSWP1r-48" value="" style="group" vertex="1" connectable="0" parent="1">
          <mxGeometry x="320" y="760" width="310" height="310" as="geometry" />
        </mxCell>
        <mxCell id="EXmQkmnTeIxn1TlSWP1r-41" style="edgeStyle=orthogonalEdgeStyle;rounded=0;orthogonalLoop=1;jettySize=auto;html=1;exitX=1;exitY=0;exitDx=0;exitDy=0;entryX=0;entryY=0.5;entryDx=0;entryDy=0;" edge="1" parent="EXmQkmnTeIxn1TlSWP1r-48" source="EXmQkmnTeIxn1TlSWP1r-6" target="EXmQkmnTeIxn1TlSWP1r-31">
          <mxGeometry relative="1" as="geometry" />
        </mxCell>
        <mxCell id="EXmQkmnTeIxn1TlSWP1r-42" style="edgeStyle=orthogonalEdgeStyle;rounded=0;orthogonalLoop=1;jettySize=auto;html=1;exitX=1;exitY=0.25;exitDx=0;exitDy=0;entryX=0;entryY=0.5;entryDx=0;entryDy=0;" edge="1" parent="EXmQkmnTeIxn1TlSWP1r-48" source="EXmQkmnTeIxn1TlSWP1r-6" target="EXmQkmnTeIxn1TlSWP1r-38">
          <mxGeometry relative="1" as="geometry" />
        </mxCell>
        <mxCell id="EXmQkmnTeIxn1TlSWP1r-43" style="edgeStyle=orthogonalEdgeStyle;rounded=0;orthogonalLoop=1;jettySize=auto;html=1;exitX=1;exitY=0.5;exitDx=0;exitDy=0;entryX=0;entryY=0.5;entryDx=0;entryDy=0;" edge="1" parent="EXmQkmnTeIxn1TlSWP1r-48" source="EXmQkmnTeIxn1TlSWP1r-6" target="EXmQkmnTeIxn1TlSWP1r-40">
          <mxGeometry relative="1" as="geometry" />
        </mxCell>
        <mxCell id="EXmQkmnTeIxn1TlSWP1r-44" style="edgeStyle=orthogonalEdgeStyle;rounded=0;orthogonalLoop=1;jettySize=auto;html=1;exitX=1;exitY=0.75;exitDx=0;exitDy=0;entryX=0;entryY=0.5;entryDx=0;entryDy=0;" edge="1" parent="EXmQkmnTeIxn1TlSWP1r-48" source="EXmQkmnTeIxn1TlSWP1r-6" target="EXmQkmnTeIxn1TlSWP1r-34">
          <mxGeometry relative="1" as="geometry" />
        </mxCell>
        <mxCell id="EXmQkmnTeIxn1TlSWP1r-45" style="edgeStyle=orthogonalEdgeStyle;rounded=0;orthogonalLoop=1;jettySize=auto;html=1;exitX=1;exitY=1;exitDx=0;exitDy=0;entryX=0;entryY=0.5;entryDx=0;entryDy=0;" edge="1" parent="EXmQkmnTeIxn1TlSWP1r-48" source="EXmQkmnTeIxn1TlSWP1r-6" target="EXmQkmnTeIxn1TlSWP1r-37">
          <mxGeometry relative="1" as="geometry" />
        </mxCell>
        <mxCell id="EXmQkmnTeIxn1TlSWP1r-46" style="edgeStyle=orthogonalEdgeStyle;rounded=0;orthogonalLoop=1;jettySize=auto;html=1;exitX=0.25;exitY=1;exitDx=0;exitDy=0;entryX=1;entryY=0;entryDx=0;entryDy=0;" edge="1" parent="EXmQkmnTeIxn1TlSWP1r-48" source="EXmQkmnTeIxn1TlSWP1r-6" target="EXmQkmnTeIxn1TlSWP1r-33">
          <mxGeometry relative="1" as="geometry" />
        </mxCell>
        <mxCell id="EXmQkmnTeIxn1TlSWP1r-6" value="Producer" style="whiteSpace=wrap;html=1;align=center;" vertex="1" parent="EXmQkmnTeIxn1TlSWP1r-48">
          <mxGeometry x="70" y="120" width="100" height="40" as="geometry" />
        </mxCell>
        <mxCell id="EXmQkmnTeIxn1TlSWP1r-31" value="Name" style="ellipse;whiteSpace=wrap;html=1;align=center;fontStyle=4;" vertex="1" parent="EXmQkmnTeIxn1TlSWP1r-48">
          <mxGeometry x="210" width="100" height="40" as="geometry" />
        </mxCell>
        <mxCell id="EXmQkmnTeIxn1TlSWP1r-33" value="Album_ID" style="ellipse;shape=doubleEllipse;margin=3;whiteSpace=wrap;html=1;align=center;" vertex="1" parent="EXmQkmnTeIxn1TlSWP1r-48">
          <mxGeometry y="210" width="100" height="40" as="geometry" />
        </mxCell>
        <mxCell id="EXmQkmnTeIxn1TlSWP1r-34" value="Debut Year" style="ellipse;whiteSpace=wrap;html=1;align=center;" vertex="1" parent="EXmQkmnTeIxn1TlSWP1r-48">
          <mxGeometry x="210" y="180" width="100" height="40" as="geometry" />
        </mxCell>
        <mxCell id="EXmQkmnTeIxn1TlSWP1r-35" value="Upcoming&amp;nbsp;&lt;div&gt;Project&lt;/div&gt;" style="ellipse;shape=doubleEllipse;margin=3;whiteSpace=wrap;html=1;align=center;" vertex="1" parent="EXmQkmnTeIxn1TlSWP1r-48">
          <mxGeometry x="70" y="270" width="100" height="40" as="geometry" />
        </mxCell>
        <mxCell id="EXmQkmnTeIxn1TlSWP1r-37" value="Best Album" style="ellipse;whiteSpace=wrap;html=1;align=center;" vertex="1" parent="EXmQkmnTeIxn1TlSWP1r-48">
          <mxGeometry x="210" y="240" width="100" height="40" as="geometry" />
        </mxCell>
        <mxCell id="EXmQkmnTeIxn1TlSWP1r-38" value="Experience" style="ellipse;whiteSpace=wrap;html=1;align=center;" vertex="1" parent="EXmQkmnTeIxn1TlSWP1r-48">
          <mxGeometry x="210" y="60" width="100" height="40" as="geometry" />
        </mxCell>
        <mxCell id="EXmQkmnTeIxn1TlSWP1r-40" value="Hits and Flops" style="ellipse;whiteSpace=wrap;html=1;align=center;" vertex="1" parent="EXmQkmnTeIxn1TlSWP1r-48">
          <mxGeometry x="210" y="120" width="100" height="40" as="geometry" />
        </mxCell>
        <mxCell id="EXmQkmnTeIxn1TlSWP1r-47" style="edgeStyle=orthogonalEdgeStyle;rounded=0;orthogonalLoop=1;jettySize=auto;html=1;exitX=0.75;exitY=1;exitDx=0;exitDy=0;entryX=0.78;entryY=0.1;entryDx=0;entryDy=0;entryPerimeter=0;" edge="1" parent="EXmQkmnTeIxn1TlSWP1r-48" source="EXmQkmnTeIxn1TlSWP1r-6" target="EXmQkmnTeIxn1TlSWP1r-35">
          <mxGeometry relative="1" as="geometry" />
        </mxCell>
        <mxCell id="EXmQkmnTeIxn1TlSWP1r-144" value="ProducedBy" style="shape=rhombus;perimeter=rhombusPerimeter;whiteSpace=wrap;html=1;align=center;" vertex="1" parent="EXmQkmnTeIxn1TlSWP1r-48">
          <mxGeometry x="-40" y="40" width="120" height="60" as="geometry" />
        </mxCell>
        <mxCell id="EXmQkmnTeIxn1TlSWP1r-162" value="" style="endArrow=none;html=1;rounded=0;exitX=1;exitY=1;exitDx=0;exitDy=0;entryX=0.25;entryY=0;entryDx=0;entryDy=0;" edge="1" parent="EXmQkmnTeIxn1TlSWP1r-48" source="EXmQkmnTeIxn1TlSWP1r-144" target="EXmQkmnTeIxn1TlSWP1r-6">
          <mxGeometry relative="1" as="geometry">
            <mxPoint x="30" y="40" as="sourcePoint" />
            <mxPoint x="190" y="40" as="targetPoint" />
          </mxGeometry>
        </mxCell>
        <mxCell id="EXmQkmnTeIxn1TlSWP1r-202" value="(1,N)" style="text;html=1;align=center;verticalAlign=middle;resizable=0;points=[];autosize=1;strokeColor=none;fillColor=none;" vertex="1" parent="EXmQkmnTeIxn1TlSWP1r-48">
          <mxGeometry x="20" y="10" width="50" height="30" as="geometry" />
        </mxCell>
        <mxCell id="EXmQkmnTeIxn1TlSWP1r-203" value="(0,N)" style="text;html=1;align=center;verticalAlign=middle;resizable=0;points=[];autosize=1;strokeColor=none;fillColor=none;rotation=30;" vertex="1" parent="EXmQkmnTeIxn1TlSWP1r-48">
          <mxGeometry x="50" y="80" width="50" height="30" as="geometry" />
        </mxCell>
        <mxCell id="EXmQkmnTeIxn1TlSWP1r-62" value="" style="group" vertex="1" connectable="0" parent="1">
          <mxGeometry x="120" y="540" width="340" height="200" as="geometry" />
        </mxCell>
        <mxCell id="EXmQkmnTeIxn1TlSWP1r-56" style="edgeStyle=orthogonalEdgeStyle;rounded=0;orthogonalLoop=1;jettySize=auto;html=1;exitX=0.5;exitY=0;exitDx=0;exitDy=0;entryX=0.5;entryY=1;entryDx=0;entryDy=0;" edge="1" parent="EXmQkmnTeIxn1TlSWP1r-62" source="EXmQkmnTeIxn1TlSWP1r-5" target="EXmQkmnTeIxn1TlSWP1r-50">
          <mxGeometry relative="1" as="geometry" />
        </mxCell>
        <mxCell id="EXmQkmnTeIxn1TlSWP1r-57" style="edgeStyle=orthogonalEdgeStyle;rounded=0;orthogonalLoop=1;jettySize=auto;html=1;exitX=0.75;exitY=0;exitDx=0;exitDy=0;entryX=0;entryY=1;entryDx=0;entryDy=0;" edge="1" parent="EXmQkmnTeIxn1TlSWP1r-62" source="EXmQkmnTeIxn1TlSWP1r-5" target="EXmQkmnTeIxn1TlSWP1r-52">
          <mxGeometry relative="1" as="geometry" />
        </mxCell>
        <mxCell id="EXmQkmnTeIxn1TlSWP1r-58" style="edgeStyle=orthogonalEdgeStyle;rounded=0;orthogonalLoop=1;jettySize=auto;html=1;exitX=0.25;exitY=0;exitDx=0;exitDy=0;entryX=1;entryY=1;entryDx=0;entryDy=0;" edge="1" parent="EXmQkmnTeIxn1TlSWP1r-62" source="EXmQkmnTeIxn1TlSWP1r-5" target="EXmQkmnTeIxn1TlSWP1r-49">
          <mxGeometry relative="1" as="geometry" />
        </mxCell>
        <mxCell id="EXmQkmnTeIxn1TlSWP1r-60" style="edgeStyle=orthogonalEdgeStyle;rounded=0;orthogonalLoop=1;jettySize=auto;html=1;exitX=0.5;exitY=1;exitDx=0;exitDy=0;entryX=0.5;entryY=0;entryDx=0;entryDy=0;" edge="1" parent="EXmQkmnTeIxn1TlSWP1r-62" source="EXmQkmnTeIxn1TlSWP1r-5" target="EXmQkmnTeIxn1TlSWP1r-51">
          <mxGeometry relative="1" as="geometry" />
        </mxCell>
        <mxCell id="EXmQkmnTeIxn1TlSWP1r-5" value="Album" style="whiteSpace=wrap;html=1;align=center;" vertex="1" parent="EXmQkmnTeIxn1TlSWP1r-62">
          <mxGeometry x="120" y="80" width="100" height="40" as="geometry" />
        </mxCell>
        <mxCell id="EXmQkmnTeIxn1TlSWP1r-49" value="Album_ID" style="ellipse;whiteSpace=wrap;html=1;align=center;fontStyle=4;" vertex="1" parent="EXmQkmnTeIxn1TlSWP1r-62">
          <mxGeometry width="100" height="40" as="geometry" />
        </mxCell>
        <mxCell id="EXmQkmnTeIxn1TlSWP1r-50" value="Duration" style="ellipse;whiteSpace=wrap;html=1;align=center;" vertex="1" parent="EXmQkmnTeIxn1TlSWP1r-62">
          <mxGeometry x="120" width="100" height="40" as="geometry" />
        </mxCell>
        <mxCell id="EXmQkmnTeIxn1TlSWP1r-51" value="Release Year" style="ellipse;whiteSpace=wrap;html=1;align=center;" vertex="1" parent="EXmQkmnTeIxn1TlSWP1r-62">
          <mxGeometry x="120" y="160" width="100" height="40" as="geometry" />
        </mxCell>
        <mxCell id="EXmQkmnTeIxn1TlSWP1r-52" value="Genre" style="ellipse;shape=doubleEllipse;margin=3;whiteSpace=wrap;html=1;align=center;" vertex="1" parent="EXmQkmnTeIxn1TlSWP1r-62">
          <mxGeometry x="240" width="100" height="40" as="geometry" />
        </mxCell>
        <mxCell id="EXmQkmnTeIxn1TlSWP1r-53" value="Budget" style="ellipse;whiteSpace=wrap;html=1;align=center;" vertex="1" parent="EXmQkmnTeIxn1TlSWP1r-62">
          <mxGeometry y="160" width="100" height="40" as="geometry" />
        </mxCell>
        <mxCell id="EXmQkmnTeIxn1TlSWP1r-54" value="Collections" style="ellipse;whiteSpace=wrap;html=1;align=center;" vertex="1" parent="EXmQkmnTeIxn1TlSWP1r-62">
          <mxGeometry x="240" y="160" width="100" height="40" as="geometry" />
        </mxCell>
        <mxCell id="EXmQkmnTeIxn1TlSWP1r-59" style="edgeStyle=orthogonalEdgeStyle;rounded=0;orthogonalLoop=1;jettySize=auto;html=1;exitX=0.25;exitY=1;exitDx=0;exitDy=0;entryX=0.8;entryY=0;entryDx=0;entryDy=0;entryPerimeter=0;" edge="1" parent="EXmQkmnTeIxn1TlSWP1r-62" source="EXmQkmnTeIxn1TlSWP1r-5" target="EXmQkmnTeIxn1TlSWP1r-53">
          <mxGeometry relative="1" as="geometry" />
        </mxCell>
        <mxCell id="EXmQkmnTeIxn1TlSWP1r-61" style="edgeStyle=orthogonalEdgeStyle;rounded=0;orthogonalLoop=1;jettySize=auto;html=1;exitX=0.75;exitY=1;exitDx=0;exitDy=0;entryX=0.2;entryY=0;entryDx=0;entryDy=0;entryPerimeter=0;" edge="1" parent="EXmQkmnTeIxn1TlSWP1r-62" source="EXmQkmnTeIxn1TlSWP1r-5" target="EXmQkmnTeIxn1TlSWP1r-54">
          <mxGeometry relative="1" as="geometry" />
        </mxCell>
        <mxCell id="EXmQkmnTeIxn1TlSWP1r-75" value="" style="group" vertex="1" connectable="0" parent="1">
          <mxGeometry x="110" y="310" width="365" height="170" as="geometry" />
        </mxCell>
        <mxCell id="EXmQkmnTeIxn1TlSWP1r-70" style="edgeStyle=orthogonalEdgeStyle;rounded=0;orthogonalLoop=1;jettySize=auto;html=1;exitX=0;exitY=0;exitDx=0;exitDy=0;entryX=0.5;entryY=1;entryDx=0;entryDy=0;" edge="1" parent="EXmQkmnTeIxn1TlSWP1r-75" source="EXmQkmnTeIxn1TlSWP1r-1" target="EXmQkmnTeIxn1TlSWP1r-63">
          <mxGeometry relative="1" as="geometry" />
        </mxCell>
        <mxCell id="EXmQkmnTeIxn1TlSWP1r-71" style="edgeStyle=orthogonalEdgeStyle;rounded=0;orthogonalLoop=1;jettySize=auto;html=1;exitX=0.5;exitY=0;exitDx=0;exitDy=0;entryX=0.5;entryY=1;entryDx=0;entryDy=0;" edge="1" parent="EXmQkmnTeIxn1TlSWP1r-75" source="EXmQkmnTeIxn1TlSWP1r-1" target="EXmQkmnTeIxn1TlSWP1r-67">
          <mxGeometry relative="1" as="geometry" />
        </mxCell>
        <mxCell id="EXmQkmnTeIxn1TlSWP1r-72" style="edgeStyle=orthogonalEdgeStyle;rounded=0;orthogonalLoop=1;jettySize=auto;html=1;exitX=1;exitY=0;exitDx=0;exitDy=0;entryX=0.5;entryY=1;entryDx=0;entryDy=0;" edge="1" parent="EXmQkmnTeIxn1TlSWP1r-75" source="EXmQkmnTeIxn1TlSWP1r-1" target="EXmQkmnTeIxn1TlSWP1r-64">
          <mxGeometry relative="1" as="geometry" />
        </mxCell>
        <mxCell id="EXmQkmnTeIxn1TlSWP1r-73" style="edgeStyle=orthogonalEdgeStyle;rounded=0;orthogonalLoop=1;jettySize=auto;html=1;exitX=0.75;exitY=0;exitDx=0;exitDy=0;entryX=0.5;entryY=1;entryDx=0;entryDy=0;" edge="1" parent="EXmQkmnTeIxn1TlSWP1r-75" source="EXmQkmnTeIxn1TlSWP1r-1" target="EXmQkmnTeIxn1TlSWP1r-66">
          <mxGeometry relative="1" as="geometry">
            <Array as="points">
              <mxPoint x="195" y="100" />
              <mxPoint x="230" y="100" />
            </Array>
          </mxGeometry>
        </mxCell>
        <mxCell id="EXmQkmnTeIxn1TlSWP1r-74" style="edgeStyle=orthogonalEdgeStyle;rounded=0;orthogonalLoop=1;jettySize=auto;html=1;exitX=0.25;exitY=0;exitDx=0;exitDy=0;entryX=0.5;entryY=1;entryDx=0;entryDy=0;" edge="1" parent="EXmQkmnTeIxn1TlSWP1r-75" source="EXmQkmnTeIxn1TlSWP1r-1" target="EXmQkmnTeIxn1TlSWP1r-65">
          <mxGeometry relative="1" as="geometry">
            <Array as="points">
              <mxPoint x="145" y="100" />
              <mxPoint x="110" y="100" />
            </Array>
          </mxGeometry>
        </mxCell>
        <mxCell id="EXmQkmnTeIxn1TlSWP1r-1" value="Song" style="whiteSpace=wrap;html=1;align=center;" vertex="1" parent="EXmQkmnTeIxn1TlSWP1r-75">
          <mxGeometry x="120" y="130" width="100" height="40" as="geometry" />
        </mxCell>
        <mxCell id="EXmQkmnTeIxn1TlSWP1r-63" value="Name" style="ellipse;whiteSpace=wrap;html=1;align=center;" vertex="1" parent="EXmQkmnTeIxn1TlSWP1r-75">
          <mxGeometry y="50" width="100" height="40" as="geometry" />
        </mxCell>
        <mxCell id="EXmQkmnTeIxn1TlSWP1r-64" value="Artist" style="ellipse;whiteSpace=wrap;html=1;align=center;" vertex="1" parent="EXmQkmnTeIxn1TlSWP1r-75">
          <mxGeometry x="240" y="50" width="100" height="40" as="geometry" />
        </mxCell>
        <mxCell id="EXmQkmnTeIxn1TlSWP1r-65" value="Lyrics" style="ellipse;shape=doubleEllipse;margin=3;whiteSpace=wrap;html=1;align=center;" vertex="1" parent="EXmQkmnTeIxn1TlSWP1r-75">
          <mxGeometry x="60" width="100" height="40" as="geometry" />
        </mxCell>
        <mxCell id="EXmQkmnTeIxn1TlSWP1r-66" value="Producer Name" style="ellipse;whiteSpace=wrap;html=1;align=center;" vertex="1" parent="EXmQkmnTeIxn1TlSWP1r-75">
          <mxGeometry x="180" width="100" height="40" as="geometry" />
        </mxCell>
        <mxCell id="EXmQkmnTeIxn1TlSWP1r-67" value="Media" style="ellipse;whiteSpace=wrap;html=1;align=center;" vertex="1" parent="EXmQkmnTeIxn1TlSWP1r-75">
          <mxGeometry x="120" y="50" width="100" height="40" as="geometry" />
        </mxCell>
        <mxCell id="EXmQkmnTeIxn1TlSWP1r-200" value="(0,N)" style="text;html=1;align=center;verticalAlign=middle;resizable=0;points=[];autosize=1;strokeColor=none;fillColor=none;" vertex="1" parent="EXmQkmnTeIxn1TlSWP1r-75">
          <mxGeometry x="315" y="120" width="50" height="30" as="geometry" />
        </mxCell>
        <mxCell id="EXmQkmnTeIxn1TlSWP1r-83" value="" style="group" vertex="1" connectable="0" parent="1">
          <mxGeometry x="1035" y="260" width="240" height="160" as="geometry" />
        </mxCell>
        <mxCell id="EXmQkmnTeIxn1TlSWP1r-80" style="edgeStyle=orthogonalEdgeStyle;rounded=0;orthogonalLoop=1;jettySize=auto;html=1;exitX=1;exitY=0.25;exitDx=0;exitDy=0;entryX=0;entryY=0.5;entryDx=0;entryDy=0;" edge="1" parent="EXmQkmnTeIxn1TlSWP1r-83" source="EXmQkmnTeIxn1TlSWP1r-9" target="EXmQkmnTeIxn1TlSWP1r-79">
          <mxGeometry relative="1" as="geometry" />
        </mxCell>
        <mxCell id="EXmQkmnTeIxn1TlSWP1r-81" style="edgeStyle=orthogonalEdgeStyle;rounded=0;orthogonalLoop=1;jettySize=auto;html=1;exitX=1;exitY=0.75;exitDx=0;exitDy=0;entryX=0;entryY=0.5;entryDx=0;entryDy=0;" edge="1" parent="EXmQkmnTeIxn1TlSWP1r-83" source="EXmQkmnTeIxn1TlSWP1r-9" target="EXmQkmnTeIxn1TlSWP1r-77">
          <mxGeometry relative="1" as="geometry" />
        </mxCell>
        <mxCell id="EXmQkmnTeIxn1TlSWP1r-82" style="edgeStyle=orthogonalEdgeStyle;rounded=0;orthogonalLoop=1;jettySize=auto;html=1;exitX=1;exitY=0.5;exitDx=0;exitDy=0;entryX=0;entryY=0.5;entryDx=0;entryDy=0;" edge="1" parent="EXmQkmnTeIxn1TlSWP1r-83" source="EXmQkmnTeIxn1TlSWP1r-9" target="EXmQkmnTeIxn1TlSWP1r-76">
          <mxGeometry relative="1" as="geometry" />
        </mxCell>
        <mxCell id="EXmQkmnTeIxn1TlSWP1r-9" value="Distribution" style="whiteSpace=wrap;html=1;align=center;" vertex="1" parent="EXmQkmnTeIxn1TlSWP1r-83">
          <mxGeometry y="60" width="100" height="40" as="geometry" />
        </mxCell>
        <mxCell id="EXmQkmnTeIxn1TlSWP1r-76" value="Name" style="ellipse;whiteSpace=wrap;html=1;align=center;" vertex="1" parent="EXmQkmnTeIxn1TlSWP1r-83">
          <mxGeometry x="140" y="60" width="100" height="40" as="geometry" />
        </mxCell>
        <mxCell id="EXmQkmnTeIxn1TlSWP1r-77" value="Platfrom" style="ellipse;whiteSpace=wrap;html=1;align=center;" vertex="1" parent="EXmQkmnTeIxn1TlSWP1r-83">
          <mxGeometry x="140" y="120" width="100" height="40" as="geometry" />
        </mxCell>
        <mxCell id="EXmQkmnTeIxn1TlSWP1r-79" value="Release Date" style="ellipse;whiteSpace=wrap;html=1;align=center;" vertex="1" parent="EXmQkmnTeIxn1TlSWP1r-83">
          <mxGeometry x="140" width="100" height="40" as="geometry" />
        </mxCell>
        <mxCell id="EXmQkmnTeIxn1TlSWP1r-94" value="" style="group" vertex="1" connectable="0" parent="1">
          <mxGeometry x="425" y="240" width="460" height="140" as="geometry" />
        </mxCell>
        <mxCell id="EXmQkmnTeIxn1TlSWP1r-90" style="edgeStyle=orthogonalEdgeStyle;rounded=0;orthogonalLoop=1;jettySize=auto;html=1;exitX=0;exitY=0;exitDx=0;exitDy=0;entryX=1;entryY=1;entryDx=0;entryDy=0;" edge="1" parent="EXmQkmnTeIxn1TlSWP1r-94" source="EXmQkmnTeIxn1TlSWP1r-7" target="EXmQkmnTeIxn1TlSWP1r-88">
          <mxGeometry relative="1" as="geometry" />
        </mxCell>
        <mxCell id="EXmQkmnTeIxn1TlSWP1r-91" style="edgeStyle=orthogonalEdgeStyle;rounded=0;orthogonalLoop=1;jettySize=auto;html=1;exitX=0.25;exitY=0;exitDx=0;exitDy=0;entryX=1;entryY=1;entryDx=0;entryDy=0;" edge="1" parent="EXmQkmnTeIxn1TlSWP1r-94" source="EXmQkmnTeIxn1TlSWP1r-7" target="EXmQkmnTeIxn1TlSWP1r-89">
          <mxGeometry relative="1" as="geometry" />
        </mxCell>
        <mxCell id="EXmQkmnTeIxn1TlSWP1r-92" style="edgeStyle=orthogonalEdgeStyle;rounded=0;orthogonalLoop=1;jettySize=auto;html=1;exitX=0.75;exitY=0;exitDx=0;exitDy=0;entryX=0;entryY=1;entryDx=0;entryDy=0;" edge="1" parent="EXmQkmnTeIxn1TlSWP1r-94" source="EXmQkmnTeIxn1TlSWP1r-7" target="EXmQkmnTeIxn1TlSWP1r-87">
          <mxGeometry relative="1" as="geometry" />
        </mxCell>
        <mxCell id="EXmQkmnTeIxn1TlSWP1r-93" style="edgeStyle=orthogonalEdgeStyle;rounded=0;orthogonalLoop=1;jettySize=auto;html=1;exitX=1;exitY=0;exitDx=0;exitDy=0;entryX=0;entryY=1;entryDx=0;entryDy=0;" edge="1" parent="EXmQkmnTeIxn1TlSWP1r-94" source="EXmQkmnTeIxn1TlSWP1r-7" target="EXmQkmnTeIxn1TlSWP1r-85">
          <mxGeometry relative="1" as="geometry" />
        </mxCell>
        <mxCell id="EXmQkmnTeIxn1TlSWP1r-7" value="Award" style="whiteSpace=wrap;html=1;align=center;" vertex="1" parent="EXmQkmnTeIxn1TlSWP1r-94">
          <mxGeometry x="180" y="80" width="100" height="40" as="geometry" />
        </mxCell>
        <mxCell id="EXmQkmnTeIxn1TlSWP1r-85" value="Level" style="ellipse;whiteSpace=wrap;html=1;align=center;" vertex="1" parent="EXmQkmnTeIxn1TlSWP1r-94">
          <mxGeometry x="360" width="100" height="40" as="geometry" />
        </mxCell>
        <mxCell id="EXmQkmnTeIxn1TlSWP1r-87" value="Album_ID" style="ellipse;whiteSpace=wrap;html=1;align=center;" vertex="1" parent="EXmQkmnTeIxn1TlSWP1r-94">
          <mxGeometry x="240" width="100" height="40" as="geometry" />
        </mxCell>
        <mxCell id="EXmQkmnTeIxn1TlSWP1r-88" value="Name" style="ellipse;whiteSpace=wrap;html=1;align=center;fontStyle=4;" vertex="1" parent="EXmQkmnTeIxn1TlSWP1r-94">
          <mxGeometry width="100" height="40" as="geometry" />
        </mxCell>
        <mxCell id="EXmQkmnTeIxn1TlSWP1r-89" value="Year" style="ellipse;whiteSpace=wrap;html=1;align=center;fontStyle=4;" vertex="1" parent="EXmQkmnTeIxn1TlSWP1r-94">
          <mxGeometry x="120" width="100" height="40" as="geometry" />
        </mxCell>
        <mxCell id="EXmQkmnTeIxn1TlSWP1r-204" value="(1,N)" style="text;html=1;align=center;verticalAlign=middle;resizable=0;points=[];autosize=1;strokeColor=none;fillColor=none;" vertex="1" parent="EXmQkmnTeIxn1TlSWP1r-94">
          <mxGeometry x="375" y="110" width="50" height="30" as="geometry" />
        </mxCell>
        <mxCell id="EXmQkmnTeIxn1TlSWP1r-104" value="" style="group" vertex="1" connectable="0" parent="1">
          <mxGeometry x="880" y="660" width="240" height="190" as="geometry" />
        </mxCell>
        <mxCell id="EXmQkmnTeIxn1TlSWP1r-100" style="edgeStyle=orthogonalEdgeStyle;rounded=0;orthogonalLoop=1;jettySize=auto;html=1;exitX=1;exitY=0;exitDx=0;exitDy=0;entryX=0;entryY=0.5;entryDx=0;entryDy=0;" edge="1" parent="EXmQkmnTeIxn1TlSWP1r-104" source="EXmQkmnTeIxn1TlSWP1r-10" target="EXmQkmnTeIxn1TlSWP1r-99">
          <mxGeometry relative="1" as="geometry">
            <mxPoint x="120" y="25" as="targetPoint" />
          </mxGeometry>
        </mxCell>
        <mxCell id="EXmQkmnTeIxn1TlSWP1r-101" style="edgeStyle=orthogonalEdgeStyle;rounded=0;orthogonalLoop=1;jettySize=auto;html=1;exitX=1;exitY=0.25;exitDx=0;exitDy=0;entryX=0;entryY=0.5;entryDx=0;entryDy=0;" edge="1" parent="EXmQkmnTeIxn1TlSWP1r-104" source="EXmQkmnTeIxn1TlSWP1r-10" target="EXmQkmnTeIxn1TlSWP1r-98">
          <mxGeometry relative="1" as="geometry" />
        </mxCell>
        <mxCell id="EXmQkmnTeIxn1TlSWP1r-102" style="edgeStyle=orthogonalEdgeStyle;rounded=0;orthogonalLoop=1;jettySize=auto;html=1;exitX=1;exitY=0.75;exitDx=0;exitDy=0;entryX=0;entryY=0.5;entryDx=0;entryDy=0;" edge="1" parent="EXmQkmnTeIxn1TlSWP1r-104" source="EXmQkmnTeIxn1TlSWP1r-10" target="EXmQkmnTeIxn1TlSWP1r-96">
          <mxGeometry relative="1" as="geometry" />
        </mxCell>
        <mxCell id="EXmQkmnTeIxn1TlSWP1r-103" style="edgeStyle=orthogonalEdgeStyle;rounded=0;orthogonalLoop=1;jettySize=auto;html=1;exitX=1;exitY=1;exitDx=0;exitDy=0;entryX=0;entryY=0.5;entryDx=0;entryDy=0;" edge="1" parent="EXmQkmnTeIxn1TlSWP1r-104" source="EXmQkmnTeIxn1TlSWP1r-10" target="EXmQkmnTeIxn1TlSWP1r-97">
          <mxGeometry relative="1" as="geometry" />
        </mxCell>
        <mxCell id="EXmQkmnTeIxn1TlSWP1r-10" value="Album Review" style="shape=ext;margin=3;double=1;whiteSpace=wrap;html=1;align=center;" vertex="1" parent="EXmQkmnTeIxn1TlSWP1r-104">
          <mxGeometry y="75" width="100" height="40" as="geometry" />
        </mxCell>
        <mxCell id="EXmQkmnTeIxn1TlSWP1r-96" value="Rating" style="ellipse;whiteSpace=wrap;html=1;align=center;" vertex="1" parent="EXmQkmnTeIxn1TlSWP1r-104">
          <mxGeometry x="140" y="100" width="100" height="40" as="geometry" />
        </mxCell>
        <mxCell id="EXmQkmnTeIxn1TlSWP1r-97" value="&lt;span style=&quot;border-bottom: 1px dotted&quot;&gt;Review_ID&lt;/span&gt;" style="ellipse;whiteSpace=wrap;html=1;align=center;" vertex="1" parent="EXmQkmnTeIxn1TlSWP1r-104">
          <mxGeometry x="140" y="150" width="100" height="40" as="geometry" />
        </mxCell>
        <mxCell id="EXmQkmnTeIxn1TlSWP1r-98" value="Comments" style="ellipse;whiteSpace=wrap;html=1;align=center;" vertex="1" parent="EXmQkmnTeIxn1TlSWP1r-104">
          <mxGeometry x="140" y="50" width="100" height="40" as="geometry" />
        </mxCell>
        <mxCell id="EXmQkmnTeIxn1TlSWP1r-99" value="Album_ID" style="ellipse;whiteSpace=wrap;html=1;align=center;" vertex="1" parent="EXmQkmnTeIxn1TlSWP1r-104">
          <mxGeometry x="140" width="100" height="40" as="geometry" />
        </mxCell>
        <mxCell id="EXmQkmnTeIxn1TlSWP1r-116" value="" style="group" vertex="1" connectable="0" parent="1">
          <mxGeometry x="870" y="430" width="230" height="200" as="geometry" />
        </mxCell>
        <mxCell id="EXmQkmnTeIxn1TlSWP1r-111" style="edgeStyle=orthogonalEdgeStyle;rounded=0;orthogonalLoop=1;jettySize=auto;html=1;exitX=0.5;exitY=0;exitDx=0;exitDy=0;entryX=0.5;entryY=1;entryDx=0;entryDy=0;" edge="1" parent="EXmQkmnTeIxn1TlSWP1r-116" source="EXmQkmnTeIxn1TlSWP1r-8" target="EXmQkmnTeIxn1TlSWP1r-105">
          <mxGeometry relative="1" as="geometry" />
        </mxCell>
        <mxCell id="EXmQkmnTeIxn1TlSWP1r-112" style="edgeStyle=orthogonalEdgeStyle;rounded=0;orthogonalLoop=1;jettySize=auto;html=1;exitX=1;exitY=0;exitDx=0;exitDy=0;entryX=0;entryY=1;entryDx=0;entryDy=0;" edge="1" parent="EXmQkmnTeIxn1TlSWP1r-116" source="EXmQkmnTeIxn1TlSWP1r-8" target="EXmQkmnTeIxn1TlSWP1r-109">
          <mxGeometry relative="1" as="geometry" />
        </mxCell>
        <mxCell id="EXmQkmnTeIxn1TlSWP1r-113" style="edgeStyle=orthogonalEdgeStyle;rounded=0;orthogonalLoop=1;jettySize=auto;html=1;exitX=1;exitY=0.5;exitDx=0;exitDy=0;entryX=0;entryY=0.5;entryDx=0;entryDy=0;" edge="1" parent="EXmQkmnTeIxn1TlSWP1r-116" source="EXmQkmnTeIxn1TlSWP1r-8" target="EXmQkmnTeIxn1TlSWP1r-108">
          <mxGeometry relative="1" as="geometry" />
        </mxCell>
        <mxCell id="EXmQkmnTeIxn1TlSWP1r-114" style="edgeStyle=orthogonalEdgeStyle;rounded=0;orthogonalLoop=1;jettySize=auto;html=1;exitX=1;exitY=1;exitDx=0;exitDy=0;entryX=0;entryY=0;entryDx=0;entryDy=0;" edge="1" parent="EXmQkmnTeIxn1TlSWP1r-116" source="EXmQkmnTeIxn1TlSWP1r-8" target="EXmQkmnTeIxn1TlSWP1r-107">
          <mxGeometry relative="1" as="geometry" />
        </mxCell>
        <mxCell id="EXmQkmnTeIxn1TlSWP1r-115" style="edgeStyle=orthogonalEdgeStyle;rounded=0;orthogonalLoop=1;jettySize=auto;html=1;exitX=0.5;exitY=1;exitDx=0;exitDy=0;entryX=0.5;entryY=0;entryDx=0;entryDy=0;" edge="1" parent="EXmQkmnTeIxn1TlSWP1r-116" source="EXmQkmnTeIxn1TlSWP1r-8" target="EXmQkmnTeIxn1TlSWP1r-110">
          <mxGeometry relative="1" as="geometry" />
        </mxCell>
        <mxCell id="EXmQkmnTeIxn1TlSWP1r-8" value="Song Review" style="shape=ext;margin=3;double=1;whiteSpace=wrap;html=1;align=center;" vertex="1" parent="EXmQkmnTeIxn1TlSWP1r-116">
          <mxGeometry y="80" width="100" height="40" as="geometry" />
        </mxCell>
        <mxCell id="EXmQkmnTeIxn1TlSWP1r-105" value="Date" style="ellipse;whiteSpace=wrap;html=1;align=center;" vertex="1" parent="EXmQkmnTeIxn1TlSWP1r-116">
          <mxGeometry width="100" height="40" as="geometry" />
        </mxCell>
        <mxCell id="EXmQkmnTeIxn1TlSWP1r-107" value="&lt;span style=&quot;border-bottom: 1px dotted&quot;&gt;Review_ID&lt;/span&gt;" style="ellipse;whiteSpace=wrap;html=1;align=center;" vertex="1" parent="EXmQkmnTeIxn1TlSWP1r-116">
          <mxGeometry x="130" y="160" width="100" height="40" as="geometry" />
        </mxCell>
        <mxCell id="EXmQkmnTeIxn1TlSWP1r-108" value="Rating" style="ellipse;whiteSpace=wrap;html=1;align=center;" vertex="1" parent="EXmQkmnTeIxn1TlSWP1r-116">
          <mxGeometry x="130" y="80" width="100" height="40" as="geometry" />
        </mxCell>
        <mxCell id="EXmQkmnTeIxn1TlSWP1r-109" value="Comments" style="ellipse;whiteSpace=wrap;html=1;align=center;" vertex="1" parent="EXmQkmnTeIxn1TlSWP1r-116">
          <mxGeometry x="130" width="100" height="40" as="geometry" />
        </mxCell>
        <mxCell id="EXmQkmnTeIxn1TlSWP1r-110" value="Song Name" style="ellipse;whiteSpace=wrap;html=1;align=center;" vertex="1" parent="EXmQkmnTeIxn1TlSWP1r-116">
          <mxGeometry y="160" width="100" height="40" as="geometry" />
        </mxCell>
        <mxCell id="EXmQkmnTeIxn1TlSWP1r-129" value="" style="group" vertex="1" connectable="0" parent="1">
          <mxGeometry x="-220" y="70" width="340" height="120" as="geometry" />
        </mxCell>
        <mxCell id="EXmQkmnTeIxn1TlSWP1r-122" style="edgeStyle=orthogonalEdgeStyle;rounded=0;orthogonalLoop=1;jettySize=auto;html=1;exitX=0;exitY=0;exitDx=0;exitDy=0;entryX=1;entryY=1;entryDx=0;entryDy=0;" edge="1" parent="EXmQkmnTeIxn1TlSWP1r-129" source="EXmQkmnTeIxn1TlSWP1r-4" target="EXmQkmnTeIxn1TlSWP1r-118">
          <mxGeometry relative="1" as="geometry" />
        </mxCell>
        <mxCell id="EXmQkmnTeIxn1TlSWP1r-123" style="edgeStyle=orthogonalEdgeStyle;rounded=0;orthogonalLoop=1;jettySize=auto;html=1;exitX=0.5;exitY=0;exitDx=0;exitDy=0;entryX=0.5;entryY=1;entryDx=0;entryDy=0;" edge="1" parent="EXmQkmnTeIxn1TlSWP1r-129" source="EXmQkmnTeIxn1TlSWP1r-4" target="EXmQkmnTeIxn1TlSWP1r-117">
          <mxGeometry relative="1" as="geometry" />
        </mxCell>
        <mxCell id="EXmQkmnTeIxn1TlSWP1r-125" style="edgeStyle=orthogonalEdgeStyle;rounded=0;orthogonalLoop=1;jettySize=auto;html=1;exitX=1;exitY=0;exitDx=0;exitDy=0;entryX=0;entryY=1;entryDx=0;entryDy=0;" edge="1" parent="EXmQkmnTeIxn1TlSWP1r-129" source="EXmQkmnTeIxn1TlSWP1r-4" target="EXmQkmnTeIxn1TlSWP1r-120">
          <mxGeometry relative="1" as="geometry">
            <mxPoint x="260" y="40" as="targetPoint" />
          </mxGeometry>
        </mxCell>
        <mxCell id="EXmQkmnTeIxn1TlSWP1r-126" style="edgeStyle=orthogonalEdgeStyle;rounded=0;orthogonalLoop=1;jettySize=auto;html=1;exitX=1;exitY=0.5;exitDx=0;exitDy=0;entryX=0;entryY=0.5;entryDx=0;entryDy=0;" edge="1" parent="EXmQkmnTeIxn1TlSWP1r-129" source="EXmQkmnTeIxn1TlSWP1r-4" target="EXmQkmnTeIxn1TlSWP1r-121">
          <mxGeometry relative="1" as="geometry" />
        </mxCell>
        <mxCell id="EXmQkmnTeIxn1TlSWP1r-128" style="edgeStyle=orthogonalEdgeStyle;rounded=0;orthogonalLoop=1;jettySize=auto;html=1;exitX=0;exitY=0.5;exitDx=0;exitDy=0;entryX=1;entryY=0.5;entryDx=0;entryDy=0;" edge="1" parent="EXmQkmnTeIxn1TlSWP1r-129" source="EXmQkmnTeIxn1TlSWP1r-4" target="EXmQkmnTeIxn1TlSWP1r-119">
          <mxGeometry relative="1" as="geometry" />
        </mxCell>
        <mxCell id="EXmQkmnTeIxn1TlSWP1r-4" value="Concert" style="shape=ext;margin=3;double=1;whiteSpace=wrap;html=1;align=center;" vertex="1" parent="EXmQkmnTeIxn1TlSWP1r-129">
          <mxGeometry x="120" y="80" width="100" height="40" as="geometry" />
        </mxCell>
        <mxCell id="EXmQkmnTeIxn1TlSWP1r-117" value="&lt;span style=&quot;border-bottom: 1px dotted&quot;&gt;Concert_ID&lt;/span&gt;" style="ellipse;whiteSpace=wrap;html=1;align=center;" vertex="1" parent="EXmQkmnTeIxn1TlSWP1r-129">
          <mxGeometry x="120" width="100" height="40" as="geometry" />
        </mxCell>
        <mxCell id="EXmQkmnTeIxn1TlSWP1r-118" value="Date" style="ellipse;whiteSpace=wrap;html=1;align=center;" vertex="1" parent="EXmQkmnTeIxn1TlSWP1r-129">
          <mxGeometry width="100" height="40" as="geometry" />
        </mxCell>
        <mxCell id="EXmQkmnTeIxn1TlSWP1r-119" value="Location" style="ellipse;whiteSpace=wrap;html=1;align=center;" vertex="1" parent="EXmQkmnTeIxn1TlSWP1r-129">
          <mxGeometry y="80" width="100" height="40" as="geometry" />
        </mxCell>
        <mxCell id="EXmQkmnTeIxn1TlSWP1r-120" value="Stage Name" style="ellipse;whiteSpace=wrap;html=1;align=center;" vertex="1" parent="EXmQkmnTeIxn1TlSWP1r-129">
          <mxGeometry x="240" width="100" height="40" as="geometry" />
        </mxCell>
        <mxCell id="EXmQkmnTeIxn1TlSWP1r-121" value="Album_ID" style="ellipse;whiteSpace=wrap;html=1;align=center;" vertex="1" parent="EXmQkmnTeIxn1TlSWP1r-129">
          <mxGeometry x="240" y="80" width="100" height="40" as="geometry" />
        </mxCell>
        <mxCell id="EXmQkmnTeIxn1TlSWP1r-131" value="Performs" style="shape=rhombus;perimeter=rhombusPerimeter;whiteSpace=wrap;html=1;align=center;" vertex="1" parent="1">
          <mxGeometry y="430" width="120" height="60" as="geometry" />
        </mxCell>
        <mxCell id="EXmQkmnTeIxn1TlSWP1r-141" value="" style="group" vertex="1" connectable="0" parent="1">
          <mxGeometry x="-160" y="230" width="220" height="110" as="geometry" />
        </mxCell>
        <mxCell id="EXmQkmnTeIxn1TlSWP1r-133" style="edgeStyle=orthogonalEdgeStyle;rounded=0;orthogonalLoop=1;jettySize=auto;html=1;exitX=0;exitY=1;exitDx=0;exitDy=0;entryX=0.5;entryY=0;entryDx=0;entryDy=0;" edge="1" parent="EXmQkmnTeIxn1TlSWP1r-141" source="EXmQkmnTeIxn1TlSWP1r-130" target="EXmQkmnTeIxn1TlSWP1r-132">
          <mxGeometry relative="1" as="geometry" />
        </mxCell>
        <mxCell id="EXmQkmnTeIxn1TlSWP1r-140" style="edgeStyle=orthogonalEdgeStyle;rounded=0;orthogonalLoop=1;jettySize=auto;html=1;exitX=1;exitY=1;exitDx=0;exitDy=0;entryX=0.5;entryY=0;entryDx=0;entryDy=0;" edge="1" parent="EXmQkmnTeIxn1TlSWP1r-141" source="EXmQkmnTeIxn1TlSWP1r-130" target="EXmQkmnTeIxn1TlSWP1r-139">
          <mxGeometry relative="1" as="geometry" />
        </mxCell>
        <mxCell id="EXmQkmnTeIxn1TlSWP1r-130" value="ConcertBy" style="shape=rhombus;double=1;perimeter=rhombusPerimeter;whiteSpace=wrap;html=1;align=center;" vertex="1" parent="EXmQkmnTeIxn1TlSWP1r-141">
          <mxGeometry x="50" width="120" height="60" as="geometry" />
        </mxCell>
        <mxCell id="EXmQkmnTeIxn1TlSWP1r-132" value="Date" style="ellipse;whiteSpace=wrap;html=1;align=center;" vertex="1" parent="EXmQkmnTeIxn1TlSWP1r-141">
          <mxGeometry y="70" width="100" height="40" as="geometry" />
        </mxCell>
        <mxCell id="EXmQkmnTeIxn1TlSWP1r-139" value="Location" style="ellipse;whiteSpace=wrap;html=1;align=center;" vertex="1" parent="EXmQkmnTeIxn1TlSWP1r-141">
          <mxGeometry x="120" y="70" width="100" height="40" as="geometry" />
        </mxCell>
        <mxCell id="EXmQkmnTeIxn1TlSWP1r-224" value="(0,N)" style="text;html=1;align=center;verticalAlign=middle;resizable=0;points=[];autosize=1;strokeColor=none;fillColor=none;" vertex="1" parent="EXmQkmnTeIxn1TlSWP1r-141">
          <mxGeometry x="160" width="50" height="30" as="geometry" />
        </mxCell>
        <mxCell id="EXmQkmnTeIxn1TlSWP1r-142" value="Composes" style="shape=rhombus;perimeter=rhombusPerimeter;whiteSpace=wrap;html=1;align=center;" vertex="1" parent="1">
          <mxGeometry x="40" y="610" width="120" height="60" as="geometry" />
        </mxCell>
        <mxCell id="EXmQkmnTeIxn1TlSWP1r-143" value="BelongsTo" style="shape=rhombus;perimeter=rhombusPerimeter;whiteSpace=wrap;html=1;align=center;" vertex="1" parent="1">
          <mxGeometry x="460" y="430" width="120" height="60" as="geometry" />
        </mxCell>
        <mxCell id="EXmQkmnTeIxn1TlSWP1r-145" value="DistributedBy" style="shape=rhombus;perimeter=rhombusPerimeter;whiteSpace=wrap;html=1;align=center;" vertex="1" parent="1">
          <mxGeometry x="850" y="310" width="120" height="60" as="geometry" />
        </mxCell>
        <mxCell id="EXmQkmnTeIxn1TlSWP1r-146" value="Features" style="shape=rhombus;perimeter=rhombusPerimeter;whiteSpace=wrap;html=1;align=center;" vertex="1" parent="1">
          <mxGeometry x="80" y="870" width="120" height="60" as="geometry" />
        </mxCell>
        <mxCell id="EXmQkmnTeIxn1TlSWP1r-147" value="AwardedTo" style="shape=rhombus;perimeter=rhombusPerimeter;whiteSpace=wrap;html=1;align=center;" vertex="1" parent="1">
          <mxGeometry x="595" y="430" width="120" height="60" as="geometry" />
        </mxCell>
        <mxCell id="EXmQkmnTeIxn1TlSWP1r-148" value="Collaborates" style="shape=rhombus;perimeter=rhombusPerimeter;whiteSpace=wrap;html=1;align=center;" vertex="1" parent="1">
          <mxGeometry x="-120" y="790" width="120" height="60" as="geometry" />
        </mxCell>
        <mxCell id="EXmQkmnTeIxn1TlSWP1r-149" value="ReviewsAlbums" style="shape=rhombus;double=1;perimeter=rhombusPerimeter;whiteSpace=wrap;html=1;align=center;" vertex="1" parent="1">
          <mxGeometry x="715" y="725" width="120" height="60" as="geometry" />
        </mxCell>
        <mxCell id="EXmQkmnTeIxn1TlSWP1r-152" value="" style="endArrow=none;html=1;rounded=0;exitX=0.75;exitY=1;exitDx=0;exitDy=0;entryX=1;entryY=0.5;entryDx=0;entryDy=0;" edge="1" parent="1" source="EXmQkmnTeIxn1TlSWP1r-2" target="EXmQkmnTeIxn1TlSWP1r-148">
          <mxGeometry relative="1" as="geometry">
            <mxPoint x="350" y="460" as="sourcePoint" />
            <mxPoint x="510" y="460" as="targetPoint" />
            <Array as="points" />
          </mxGeometry>
        </mxCell>
        <mxCell id="EXmQkmnTeIxn1TlSWP1r-20" value="Hits and flops" style="ellipse;whiteSpace=wrap;html=1;align=center;" vertex="1" parent="1">
          <mxGeometry x="-320" y="780" width="100" height="40" as="geometry" />
        </mxCell>
        <mxCell id="EXmQkmnTeIxn1TlSWP1r-29" style="edgeStyle=orthogonalEdgeStyle;rounded=0;orthogonalLoop=1;jettySize=auto;html=1;exitX=0.25;exitY=1;exitDx=0;exitDy=0;entryX=0;entryY=0;entryDx=0;entryDy=0;" edge="1" parent="1" source="EXmQkmnTeIxn1TlSWP1r-2" target="EXmQkmnTeIxn1TlSWP1r-20">
          <mxGeometry relative="1" as="geometry" />
        </mxCell>
        <mxCell id="EXmQkmnTeIxn1TlSWP1r-153" value="" style="endArrow=none;html=1;rounded=0;exitX=0.5;exitY=1;exitDx=0;exitDy=0;entryX=0;entryY=0.5;entryDx=0;entryDy=0;" edge="1" parent="1" source="EXmQkmnTeIxn1TlSWP1r-2" target="EXmQkmnTeIxn1TlSWP1r-148">
          <mxGeometry relative="1" as="geometry">
            <mxPoint x="350" y="460" as="sourcePoint" />
            <mxPoint x="510" y="460" as="targetPoint" />
          </mxGeometry>
        </mxCell>
        <mxCell id="EXmQkmnTeIxn1TlSWP1r-160" value="" style="endArrow=none;html=1;rounded=0;exitX=1;exitY=0.5;exitDx=0;exitDy=0;entryX=0;entryY=0.5;entryDx=0;entryDy=0;" edge="1" parent="1" source="EXmQkmnTeIxn1TlSWP1r-2" target="EXmQkmnTeIxn1TlSWP1r-142">
          <mxGeometry relative="1" as="geometry">
            <mxPoint x="350" y="460" as="sourcePoint" />
            <mxPoint x="510" y="460" as="targetPoint" />
          </mxGeometry>
        </mxCell>
        <mxCell id="EXmQkmnTeIxn1TlSWP1r-161" value="" style="endArrow=none;html=1;rounded=0;exitX=1;exitY=0.5;exitDx=0;exitDy=0;entryX=0;entryY=0.5;entryDx=0;entryDy=0;" edge="1" parent="1" source="EXmQkmnTeIxn1TlSWP1r-142" target="EXmQkmnTeIxn1TlSWP1r-5">
          <mxGeometry relative="1" as="geometry">
            <mxPoint x="350" y="460" as="sourcePoint" />
            <mxPoint x="510" y="460" as="targetPoint" />
          </mxGeometry>
        </mxCell>
        <mxCell id="EXmQkmnTeIxn1TlSWP1r-163" value="" style="endArrow=none;html=1;rounded=0;exitX=1;exitY=1;exitDx=0;exitDy=0;entryX=0.5;entryY=0;entryDx=0;entryDy=0;" edge="1" parent="1" source="EXmQkmnTeIxn1TlSWP1r-5" target="EXmQkmnTeIxn1TlSWP1r-144">
          <mxGeometry relative="1" as="geometry">
            <mxPoint x="350" y="800" as="sourcePoint" />
            <mxPoint x="510" y="800" as="targetPoint" />
          </mxGeometry>
        </mxCell>
        <mxCell id="EXmQkmnTeIxn1TlSWP1r-164" value="" style="endArrow=none;html=1;rounded=0;entryX=0;entryY=0.5;entryDx=0;entryDy=0;" edge="1" parent="1" target="EXmQkmnTeIxn1TlSWP1r-6">
          <mxGeometry relative="1" as="geometry">
            <mxPoint x="200" y="899.29" as="sourcePoint" />
            <mxPoint x="360" y="899.29" as="targetPoint" />
          </mxGeometry>
        </mxCell>
        <mxCell id="EXmQkmnTeIxn1TlSWP1r-166" value="" style="endArrow=none;html=1;rounded=0;entryX=0;entryY=1;entryDx=0;entryDy=0;exitX=1;exitY=0;exitDx=0;exitDy=0;" edge="1" parent="1" source="EXmQkmnTeIxn1TlSWP1r-146" target="EXmQkmnTeIxn1TlSWP1r-5">
          <mxGeometry relative="1" as="geometry">
            <mxPoint x="350" y="800" as="sourcePoint" />
            <mxPoint x="510" y="800" as="targetPoint" />
            <Array as="points">
              <mxPoint x="240" y="840" />
            </Array>
          </mxGeometry>
        </mxCell>
        <mxCell id="EXmQkmnTeIxn1TlSWP1r-167" value="" style="endArrow=none;html=1;rounded=0;exitX=1;exitY=1;exitDx=0;exitDy=0;entryX=0;entryY=0.5;entryDx=0;entryDy=0;" edge="1" parent="1" source="EXmQkmnTeIxn1TlSWP1r-2" target="EXmQkmnTeIxn1TlSWP1r-146">
          <mxGeometry relative="1" as="geometry">
            <mxPoint x="350" y="800" as="sourcePoint" />
            <mxPoint x="510" y="800" as="targetPoint" />
            <Array as="points">
              <mxPoint x="80" y="720" />
            </Array>
          </mxGeometry>
        </mxCell>
        <mxCell id="EXmQkmnTeIxn1TlSWP1r-168" value="" style="endArrow=none;html=1;rounded=0;exitX=1;exitY=0;exitDx=0;exitDy=0;entryX=0.5;entryY=1;entryDx=0;entryDy=0;" edge="1" parent="1" source="EXmQkmnTeIxn1TlSWP1r-2" target="EXmQkmnTeIxn1TlSWP1r-131">
          <mxGeometry relative="1" as="geometry">
            <mxPoint x="350" y="460" as="sourcePoint" />
            <mxPoint x="510" y="460" as="targetPoint" />
            <Array as="points">
              <mxPoint x="60" y="590" />
            </Array>
          </mxGeometry>
        </mxCell>
        <mxCell id="EXmQkmnTeIxn1TlSWP1r-171" value="" style="endArrow=none;html=1;rounded=0;exitX=1;exitY=0.5;exitDx=0;exitDy=0;entryX=0;entryY=0.5;entryDx=0;entryDy=0;" edge="1" parent="1" source="EXmQkmnTeIxn1TlSWP1r-131" target="EXmQkmnTeIxn1TlSWP1r-1">
          <mxGeometry relative="1" as="geometry">
            <mxPoint x="350" y="460" as="sourcePoint" />
            <mxPoint x="510" y="460" as="targetPoint" />
          </mxGeometry>
        </mxCell>
        <mxCell id="EXmQkmnTeIxn1TlSWP1r-196" value="(0,N)" style="edgeLabel;html=1;align=center;verticalAlign=middle;resizable=0;points=[];" vertex="1" connectable="0" parent="EXmQkmnTeIxn1TlSWP1r-171">
          <mxGeometry x="-0.6182" relative="1" as="geometry">
            <mxPoint x="-11" y="10" as="offset" />
          </mxGeometry>
        </mxCell>
        <mxCell id="EXmQkmnTeIxn1TlSWP1r-172" value="" style="endArrow=none;html=1;rounded=0;exitX=1;exitY=0.5;exitDx=0;exitDy=0;entryX=0;entryY=0.5;entryDx=0;entryDy=0;" edge="1" parent="1" source="EXmQkmnTeIxn1TlSWP1r-1" target="EXmQkmnTeIxn1TlSWP1r-143">
          <mxGeometry relative="1" as="geometry">
            <mxPoint x="350" y="460" as="sourcePoint" />
            <mxPoint x="510" y="460" as="targetPoint" />
          </mxGeometry>
        </mxCell>
        <mxCell id="EXmQkmnTeIxn1TlSWP1r-175" value="" style="endArrow=none;html=1;rounded=0;exitX=0.5;exitY=1;exitDx=0;exitDy=0;entryX=0.5;entryY=0;entryDx=0;entryDy=0;" edge="1" parent="1" source="EXmQkmnTeIxn1TlSWP1r-143" target="EXmQkmnTeIxn1TlSWP1r-6">
          <mxGeometry relative="1" as="geometry">
            <mxPoint x="540" y="559.29" as="sourcePoint" />
            <mxPoint x="700" y="559.29" as="targetPoint" />
            <Array as="points">
              <mxPoint x="520" y="760" />
              <mxPoint x="440" y="760" />
            </Array>
          </mxGeometry>
        </mxCell>
        <mxCell id="EXmQkmnTeIxn1TlSWP1r-177" value="" style="endArrow=none;html=1;rounded=0;exitX=0.5;exitY=1;exitDx=0;exitDy=0;entryX=1;entryY=0;entryDx=0;entryDy=0;" edge="1" parent="1" source="EXmQkmnTeIxn1TlSWP1r-130" target="EXmQkmnTeIxn1TlSWP1r-2">
          <mxGeometry relative="1" as="geometry">
            <mxPoint x="350" y="520" as="sourcePoint" />
            <mxPoint x="510" y="520" as="targetPoint" />
            <Array as="points">
              <mxPoint x="-50" y="510" />
              <mxPoint x="10" y="560" />
            </Array>
          </mxGeometry>
        </mxCell>
        <mxCell id="EXmQkmnTeIxn1TlSWP1r-178" value="" style="endArrow=none;html=1;rounded=0;exitX=1;exitY=0.5;exitDx=0;exitDy=0;entryX=0.25;entryY=0;entryDx=0;entryDy=0;" edge="1" parent="1" source="EXmQkmnTeIxn1TlSWP1r-130" target="EXmQkmnTeIxn1TlSWP1r-5">
          <mxGeometry relative="1" as="geometry">
            <mxPoint x="350" y="520" as="sourcePoint" />
            <mxPoint x="510" y="520" as="targetPoint" />
            <Array as="points">
              <mxPoint x="70" y="260" />
              <mxPoint x="70" y="410" />
              <mxPoint x="240" y="490" />
              <mxPoint x="240" y="570" />
            </Array>
          </mxGeometry>
        </mxCell>
        <mxCell id="EXmQkmnTeIxn1TlSWP1r-179" value="" style="endArrow=none;html=1;rounded=0;exitX=0.5;exitY=1;exitDx=0;exitDy=0;entryX=0.5;entryY=0;entryDx=0;entryDy=0;" edge="1" parent="1" source="EXmQkmnTeIxn1TlSWP1r-7" target="EXmQkmnTeIxn1TlSWP1r-147">
          <mxGeometry relative="1" as="geometry">
            <mxPoint x="790" y="660" as="sourcePoint" />
            <mxPoint x="950" y="660" as="targetPoint" />
          </mxGeometry>
        </mxCell>
        <mxCell id="EXmQkmnTeIxn1TlSWP1r-180" value="" style="endArrow=none;html=1;rounded=0;exitX=0.5;exitY=1;exitDx=0;exitDy=0;entryX=1;entryY=0.5;entryDx=0;entryDy=0;" edge="1" parent="1" source="EXmQkmnTeIxn1TlSWP1r-147" target="EXmQkmnTeIxn1TlSWP1r-5">
          <mxGeometry relative="1" as="geometry">
            <mxPoint x="710" y="620" as="sourcePoint" />
            <mxPoint x="870" y="620" as="targetPoint" />
            <Array as="points">
              <mxPoint x="655" y="640" />
            </Array>
          </mxGeometry>
        </mxCell>
        <mxCell id="EXmQkmnTeIxn1TlSWP1r-182" value="ReviewSong" style="shape=rhombus;double=1;perimeter=rhombusPerimeter;whiteSpace=wrap;html=1;align=center;" vertex="1" parent="1">
          <mxGeometry x="690" y="500" width="120" height="60" as="geometry" />
        </mxCell>
        <mxCell id="EXmQkmnTeIxn1TlSWP1r-184" value="" style="endArrow=none;html=1;rounded=0;entryX=0;entryY=0.5;entryDx=0;entryDy=0;exitX=1;exitY=1;exitDx=0;exitDy=0;" edge="1" parent="1" source="EXmQkmnTeIxn1TlSWP1r-1" target="EXmQkmnTeIxn1TlSWP1r-182">
          <mxGeometry relative="1" as="geometry">
            <mxPoint x="350" y="340" as="sourcePoint" />
            <mxPoint x="510" y="340" as="targetPoint" />
            <Array as="points">
              <mxPoint x="330" y="530" />
            </Array>
          </mxGeometry>
        </mxCell>
        <mxCell id="EXmQkmnTeIxn1TlSWP1r-186" value="" style="shape=link;html=1;rounded=0;entryX=0.5;entryY=0;entryDx=0;entryDy=0;exitX=0.5;exitY=1;exitDx=0;exitDy=0;" edge="1" parent="1" source="EXmQkmnTeIxn1TlSWP1r-4" target="EXmQkmnTeIxn1TlSWP1r-130">
          <mxGeometry relative="1" as="geometry">
            <mxPoint x="350" y="340" as="sourcePoint" />
            <mxPoint x="510" y="340" as="targetPoint" />
          </mxGeometry>
        </mxCell>
        <mxCell id="EXmQkmnTeIxn1TlSWP1r-188" value="" style="shape=link;html=1;rounded=0;entryX=1;entryY=0.5;entryDx=0;entryDy=0;exitX=0;exitY=0.5;exitDx=0;exitDy=0;" edge="1" parent="1" source="EXmQkmnTeIxn1TlSWP1r-8" target="EXmQkmnTeIxn1TlSWP1r-182">
          <mxGeometry relative="1" as="geometry">
            <mxPoint x="350" y="340" as="sourcePoint" />
            <mxPoint x="510" y="340" as="targetPoint" />
          </mxGeometry>
        </mxCell>
        <mxCell id="EXmQkmnTeIxn1TlSWP1r-190" value="" style="endArrow=none;html=1;rounded=0;entryX=0;entryY=0.5;entryDx=0;entryDy=0;exitX=1;exitY=1;exitDx=0;exitDy=0;" edge="1" parent="1" source="EXmQkmnTeIxn1TlSWP1r-5" target="EXmQkmnTeIxn1TlSWP1r-149">
          <mxGeometry relative="1" as="geometry">
            <mxPoint x="350" y="340" as="sourcePoint" />
            <mxPoint x="510" y="340" as="targetPoint" />
            <Array as="points">
              <mxPoint x="715" y="660" />
            </Array>
          </mxGeometry>
        </mxCell>
        <mxCell id="EXmQkmnTeIxn1TlSWP1r-192" value="" style="shape=link;html=1;rounded=0;exitX=1;exitY=0.5;exitDx=0;exitDy=0;entryX=0;entryY=0.5;entryDx=0;entryDy=0;" edge="1" parent="1" source="EXmQkmnTeIxn1TlSWP1r-149" target="EXmQkmnTeIxn1TlSWP1r-10">
          <mxGeometry relative="1" as="geometry">
            <mxPoint x="350" y="340" as="sourcePoint" />
            <mxPoint x="510" y="340" as="targetPoint" />
          </mxGeometry>
        </mxCell>
        <mxCell id="EXmQkmnTeIxn1TlSWP1r-194" value="" style="endArrow=none;html=1;rounded=0;entryX=0;entryY=0.5;entryDx=0;entryDy=0;exitX=1;exitY=0.5;exitDx=0;exitDy=0;" edge="1" parent="1" source="EXmQkmnTeIxn1TlSWP1r-145" target="EXmQkmnTeIxn1TlSWP1r-9">
          <mxGeometry relative="1" as="geometry">
            <mxPoint x="960" y="220" as="sourcePoint" />
            <mxPoint x="1120" y="220" as="targetPoint" />
          </mxGeometry>
        </mxCell>
        <mxCell id="EXmQkmnTeIxn1TlSWP1r-195" value="" style="endArrow=none;html=1;rounded=0;entryX=0;entryY=0.5;entryDx=0;entryDy=0;exitX=1;exitY=0;exitDx=0;exitDy=0;" edge="1" parent="1" source="EXmQkmnTeIxn1TlSWP1r-5" target="EXmQkmnTeIxn1TlSWP1r-145">
          <mxGeometry relative="1" as="geometry">
            <mxPoint x="875" y="200" as="sourcePoint" />
            <mxPoint x="1035" y="200" as="targetPoint" />
            <Array as="points">
              <mxPoint x="850" y="630" />
            </Array>
          </mxGeometry>
        </mxCell>
        <mxCell id="EXmQkmnTeIxn1TlSWP1r-197" value="(0,N)" style="text;html=1;align=center;verticalAlign=middle;resizable=0;points=[];autosize=1;strokeColor=none;fillColor=none;" vertex="1" parent="1">
          <mxGeometry x="55" y="490" width="50" height="30" as="geometry" />
        </mxCell>
        <mxCell id="EXmQkmnTeIxn1TlSWP1r-199" value="(0,N)" style="text;html=1;align=center;verticalAlign=middle;resizable=0;points=[];autosize=1;strokeColor=none;fillColor=none;" vertex="1" parent="1">
          <mxGeometry x="145" y="608" width="50" height="30" as="geometry" />
        </mxCell>
        <mxCell id="EXmQkmnTeIxn1TlSWP1r-201" value="(0,N)" style="text;html=1;align=center;verticalAlign=middle;resizable=0;points=[];autosize=1;strokeColor=none;fillColor=none;" vertex="1" parent="1">
          <mxGeometry x="510" y="490" width="50" height="30" as="geometry" />
        </mxCell>
        <mxCell id="EXmQkmnTeIxn1TlSWP1r-205" value="(0,N)" style="text;html=1;align=center;verticalAlign=middle;resizable=0;points=[];autosize=1;strokeColor=none;fillColor=none;" vertex="1" parent="1">
          <mxGeometry x="955" y="310" width="50" height="30" as="geometry" />
        </mxCell>
        <mxCell id="EXmQkmnTeIxn1TlSWP1r-207" value="" style="endArrow=none;html=1;rounded=0;exitX=0;exitY=1;exitDx=0;exitDy=0;entryX=0.5;entryY=0;entryDx=0;entryDy=0;" edge="1" parent="1" source="EXmQkmnTeIxn1TlSWP1r-1" target="EXmQkmnTeIxn1TlSWP1r-146">
          <mxGeometry relative="1" as="geometry">
            <mxPoint x="350" y="520" as="sourcePoint" />
            <mxPoint x="510" y="520" as="targetPoint" />
            <Array as="points">
              <mxPoint x="230" y="790" />
            </Array>
          </mxGeometry>
        </mxCell>
        <mxCell id="EXmQkmnTeIxn1TlSWP1r-208" value="(1,N)" style="text;html=1;align=center;verticalAlign=middle;resizable=0;points=[];autosize=1;strokeColor=none;fillColor=none;" vertex="1" parent="1">
          <mxGeometry x="30" y="870" width="50" height="30" as="geometry" />
        </mxCell>
        <mxCell id="EXmQkmnTeIxn1TlSWP1r-209" value="(1,N)" style="text;html=1;align=center;verticalAlign=middle;resizable=0;points=[];autosize=1;strokeColor=none;fillColor=none;" vertex="1" parent="1">
          <mxGeometry x="115" y="830" width="50" height="30" as="geometry" />
        </mxCell>
        <mxCell id="EXmQkmnTeIxn1TlSWP1r-211" value="(1,N)" style="text;html=1;align=center;verticalAlign=middle;resizable=0;points=[];autosize=1;strokeColor=none;fillColor=none;" vertex="1" parent="1">
          <mxGeometry x="160" y="840" width="50" height="30" as="geometry" />
        </mxCell>
        <mxCell id="EXmQkmnTeIxn1TlSWP1r-213" value="(1,1)" style="text;html=1;align=center;verticalAlign=middle;resizable=0;points=[];autosize=1;strokeColor=none;fillColor=none;" vertex="1" parent="1">
          <mxGeometry x="195" y="870" width="50" height="30" as="geometry" />
        </mxCell>
        <mxCell id="EXmQkmnTeIxn1TlSWP1r-214" value="(0,N)" style="text;html=1;align=center;verticalAlign=middle;resizable=0;points=[];autosize=1;strokeColor=none;fillColor=none;" vertex="1" parent="1">
          <mxGeometry x="650" y="400" width="50" height="30" as="geometry" />
        </mxCell>
        <mxCell id="EXmQkmnTeIxn1TlSWP1r-215" value="(1,1)" style="text;html=1;align=center;verticalAlign=middle;resizable=0;points=[];autosize=1;strokeColor=none;fillColor=none;" vertex="1" parent="1">
          <mxGeometry x="615" y="490" width="50" height="30" as="geometry" />
        </mxCell>
        <mxCell id="EXmQkmnTeIxn1TlSWP1r-220" value="(1,N)" style="text;html=1;align=center;verticalAlign=middle;resizable=0;points=[];autosize=1;strokeColor=none;fillColor=none;" vertex="1" parent="1">
          <mxGeometry x="-50" y="200" width="50" height="30" as="geometry" />
        </mxCell>
        <mxCell id="EXmQkmnTeIxn1TlSWP1r-221" value="(1,N)" style="text;html=1;align=center;verticalAlign=middle;resizable=0;points=[];autosize=1;strokeColor=none;fillColor=none;" vertex="1" parent="1">
          <mxGeometry x="-90" y="340" width="50" height="30" as="geometry" />
        </mxCell>
        <mxCell id="EXmQkmnTeIxn1TlSWP1r-225" value="(1,1)" style="text;html=1;align=center;verticalAlign=middle;resizable=0;points=[];autosize=1;strokeColor=none;fillColor=none;" vertex="1" parent="1">
          <mxGeometry x="820" y="720" width="50" height="30" as="geometry" />
        </mxCell>
        <mxCell id="EXmQkmnTeIxn1TlSWP1r-226" value="(1,N)" style="text;html=1;align=center;verticalAlign=middle;resizable=0;points=[];autosize=1;strokeColor=none;fillColor=none;" vertex="1" parent="1">
          <mxGeometry x="665" y="720" width="50" height="30" as="geometry" />
        </mxCell>
        <mxCell id="EXmQkmnTeIxn1TlSWP1r-228" value="(1,1)" style="text;html=1;align=center;verticalAlign=middle;resizable=0;points=[];autosize=1;strokeColor=none;fillColor=none;" vertex="1" parent="1">
          <mxGeometry x="800" y="500" width="50" height="30" as="geometry" />
        </mxCell>
        <mxCell id="EXmQkmnTeIxn1TlSWP1r-229" value="(1,N)" style="text;html=1;align=center;verticalAlign=middle;resizable=0;points=[];autosize=1;strokeColor=none;fillColor=none;" vertex="1" parent="1">
          <mxGeometry x="640" y="535" width="50" height="30" as="geometry" />
        </mxCell>
      </root>
    </mxGraphModel>
  </diagram>
</mxfile>
